<svg width="140" height="60" viewBox="0 0 140 60" fill="none" xmlns="http://www.w3.org/2000/svg">
<path d="M70 60C108.66 60 140 46.5685 140 30C140 13.4315 108.66 0 70 0C31.3401 0 0 13.4315 0 30C0 46.5685 31.3401 60 70 60Z" fill="white"/>
<path d="M68.9103 10.0396C69.1489 9.94459 69.308 9.91292 69.5466 9.83374C78.408 7.16549 91.6603 5.35235 110.751 7.54554C96.0035 3.43627 74.041 1.50437 52.9375 3.65005C46.2955 4.27555 38.4125 5.82741 38.4046 5.82741C23.8637 9.17657 2.84778 16.4133 2.38642 30.3721C1.7421 50.7601 48.8966 54.4497 71.7421 44.909C40.1785 51.9873 5.35346 47.0388 7.15915 29.517C8.75005 13.8876 38.9773 7.19716 50.1694 11.4727C52.3579 12.0961 54.6225 12.4158 56.8989 12.4228C61.0103 12.3196 65.0733 11.5134 68.9103 10.0396Z" fill="#EE3124"/>
<path d="M71.1056 49.9763L70.4612 50.1663C61.5919 52.8425 48.3476 54.6477 29.2646 52.4624C44.0124 56.5717 65.9669 58.5036 87.0942 56.35C93.7124 55.7245 101.603 54.1805 101.603 54.1805C116.16 50.8314 137.16 43.6184 137.606 29.6358C138.258 9.23993 91.1033 5.54239 68.2658 15.099C99.8294 8.02061 134.662 12.9454 132.841 30.4751C131.25 46.1204 101.023 52.8108 89.8862 48.5036C87.6968 47.8714 85.4284 47.5515 83.1487 47.5535C79.0235 47.6593 74.9483 48.4792 71.1056 49.9763Z" fill="#00853F"/>
<path d="M16.0364 25.4553C16.7603 23.08 13.8171 24.2439 14.2864 22.8029L14.6762 21.5123H28.9944L28.6364 22.7158C28.1273 24.3626 26.2023 22.8345 25.4069 25.4553L23.4501 32.5812C23.0577 33.6011 22.7906 34.6645 22.6546 35.7482C22.6546 37.4347 24.0944 38.0444 25.7728 38.0444C30.0444 38.0444 31.0944 34.6873 31.516 33.2938L33.6876 25.3761C34.3716 23.0879 31.6671 24.1726 32.0966 22.7237L32.4944 21.4648H40.6319L40.3455 22.6128C39.916 24.3231 37.8716 22.8187 37.0841 25.4394L34.6182 34.2914C32.9637 39.7625 28.2546 40.768 23.6251 40.768C19.3694 40.768 16.3864 39.7625 14.9546 38.1473C14.3182 37.4426 13.1251 36.0174 14.0557 32.6999C14.5251 30.8789 16.0364 25.4553 16.0364 25.4553Z" fill="#00853F"/>
<path d="M44.3148 39.7229H36.2568L38.7864 31.2668C39.1762 29.9604 38.6352 29.5566 38.1341 29.4062L37.7762 29.2953C37.4182 29.1845 37.0602 29.0578 37.2034 28.5907L37.5932 27.3159H39.2477C41.3074 27.3089 43.3614 27.102 45.3807 26.6984C46.9239 26.3737 47.9102 26.0808 48.0773 26.0808C48.2443 26.0808 48.3557 26.35 48.3239 26.5242L47.8148 28.1077C50.1534 27.0151 52.0148 26.0966 54.4966 26.0966C57.933 26.0966 58.9432 27.8306 58.9432 29.0657C58.9432 29.6596 58.6966 30.3959 57.9727 32.8345L57.0739 35.8512C56.8193 36.7063 57.3602 37.0942 57.8693 37.0942C58.5146 37.0557 59.1415 36.8658 59.6989 36.54C60.3114 37.506 60.383 37.6564 60.383 37.8306C60.383 38.6223 57.408 40.1584 53.9239 40.1584C51.3943 40.1584 48.6898 39.1528 48.6898 37.5614C48.6898 36.2708 50.5512 31.4648 50.5512 30.5226C50.5711 30.3137 50.5069 30.1054 50.3727 29.9436C50.2384 29.7818 50.0451 29.6796 49.8352 29.6596H49.6364C48.7267 29.7043 47.843 29.9766 47.0671 30.4513L44.3148 39.7229Z" fill="#00853F"/>
<path d="M62.1014 32.0032C62.4912 30.6492 61.9582 30.3246 61.4173 30.1504L61.0275 30.0317C60.5184 29.8812 60.3753 29.6754 60.4866 29.3191L60.8844 28.0285C66.7309 30.4038 70.5332 28.3531 71.1059 28.3531C71.3923 28.3531 71.3923 28.5907 71.3207 28.7965L69.1412 35.9699C69.0788 36.1841 69.1029 36.414 69.2084 36.6108C69.3139 36.8075 69.4924 36.9554 69.7059 37.023C69.8167 37.0388 69.9292 37.0388 70.04 37.023C70.7347 36.9726 71.409 36.767 72.0128 36.4212C72.307 36.91 72.5142 37.4457 72.6253 38.0047C72.6253 38.7411 68.8548 40.1267 65.7366 40.1267C63.2548 40.1267 60.8844 39.5091 60.8844 37.3001C60.8826 37.0296 60.9312 36.7612 61.0275 36.5083L62.1014 32.0032Z" fill="#00853F"/>
<path d="M66.2615 21.7023C67.924 21.6627 69.0377 22.3041 71.0343 21.8607C73.2933 21.3539 74.1604 20.095 74.9399 20.8551C76.5308 22.3912 70.7638 27.2605 65.6252 27.2843C64.0343 27.2843 62.1252 26.5875 62.1252 24.616C62.1093 23.5946 63.2468 21.7657 66.2615 21.7023Z" fill="#EE3124"/>
<path d="M85.2809 23.175C85.1204 24.1704 84.9053 25.1563 84.6366 26.1283C84.2468 27.498 82.1071 33.2542 81.6616 35.1861C81.3753 36.35 81.8446 37.1576 83.0218 37.1576C85.4639 37.1576 88.7332 32.9137 88.4071 29.7941C87.3968 29.8496 86.1162 29.612 86.1162 28.0839C86.1162 26.5558 89.298 25.7086 90.5946 25.7086C90.9908 25.7158 91.3817 25.8009 91.7448 25.959C92.1079 26.1171 92.436 26.3451 92.7103 26.6299C92.9845 26.9146 93.1995 27.2505 93.3429 27.6183C93.4863 27.9861 93.5552 28.3784 93.5457 28.7728C93.5493 28.807 93.5493 28.8415 93.5457 28.8757C93.5467 29.1406 93.5281 29.4053 93.49 29.6675C92.6677 30.3985 92.0356 31.3169 91.6477 32.3442C91.2598 33.3714 91.1277 34.477 91.2627 35.5661C90.9475 36.0537 90.5823 36.5074 90.173 36.92C87.5241 39.7783 82.0912 40.0871 79.7048 40.0871C73.8503 40.0871 73.3412 37.6485 73.3412 36.7934C73.3412 36.1441 73.2616 36.057 74.6616 31.5519C75.0912 30.1663 74.8843 29.1766 74.3037 28.939L74.0968 28.8678C73.7309 28.7569 73.373 28.6382 73.5241 28.1631C73.5299 28.0192 73.5485 27.8761 73.5798 27.7356C73.5982 27.6586 73.6377 27.5883 73.6939 27.5324C73.7501 27.4765 73.8207 27.4372 73.898 27.4188C74.3037 27.2605 75.4889 26.8646 76.5866 26.4133C78.3929 25.6358 80.149 24.7473 81.8446 23.753C82.5366 23.365 83.3162 22.8662 83.9764 22.4228C84.8355 21.8844 85.4082 22.5099 85.2809 23.175Z" fill="#00853F"/>
<path d="M108.882 36.8092C108.882 37.696 105.215 40.1109 100.227 40.1109C96.6953 40.1109 91.6362 39.2003 91.6362 34.8139C91.6362 30.2138 96.7351 26.0333 104.881 26.0333C109.256 26.0333 110.974 27.4426 110.974 29.2003C110.974 30.4672 110.178 32.4703 106.384 33.5313C104.483 34.038 103.592 34.0697 99.8533 34.1251C99.8055 34.4656 99.7658 34.806 99.7499 35.1544C99.734 35.5028 99.8931 37.5297 102.693 37.5297C104.714 37.5297 106.106 36.6508 107.824 35.5186C108.667 36.4687 108.882 36.7142 108.882 36.8092ZM104.904 29.2637C104.912 29.1669 104.9 29.0696 104.87 28.9774C104.84 28.8851 104.791 28.7998 104.728 28.7262C104.664 28.6526 104.587 28.5923 104.5 28.5486C104.412 28.505 104.318 28.4789 104.22 28.4719C104.163 28.4602 104.103 28.4602 104.045 28.4719C102.932 28.4719 101.349 29.327 100.458 31.9478C103.186 31.8448 104.904 30.6334 104.904 29.2478V29.2637Z" fill="#00853F"/>
<path d="M111.825 39.7229C113.941 33.4442 113.941 31.8606 113.941 31.2985C113.941 28.7807 111.857 30.293 111.642 29.0895L111.427 27.8226C117.314 27.2605 119.573 26.057 120.289 26.057C121.005 26.057 120.973 27.2051 120.973 30.5859H121.036C122.261 28.6698 124.019 26.057 127.034 26.057C128.975 26.057 130.725 27.3238 130.725 29.0261C130.725 30.8551 129.007 32.1219 127.217 32.1219C126.632 32.1243 126.057 31.9805 125.543 31.7038C125.028 31.4272 124.592 31.0264 124.274 30.5384C122.802 31.8369 121.744 33.1275 119.931 39.6991L111.825 39.7229Z" fill="#00853F"/>
</svg>
