 <svg  version="1.0" xmlns="http://www.w3.org/2000/svg"  width="252.000000pt" height="271.000000pt" viewBox="0 0 252.000000 271.000000"  preserveAspectRatio="xMidYMid meet">  <g transform="translate(0.000000,271.000000) scale(0.100000,-0.100000)" fill="#000000" stroke="none"> <path d="M925 2598 c-8 -42 9 -173 36 -268 47 -172 169 -369 288 -465 l46 -38 -46 49 c-76 81 -149 174 -149 190 0 8 -16 45 -35 82 -43 84 -85 195 -85 226 0 12 -3 26 -7 29 -7 8 -17 87 -10 87 2 0 17 -25 33 -56 29 -56 62 -99 70 -91 3 2 -9 31 -25 63 -16 32 -43 93 -61 134 -40 94 -47 101 -55 58z"/> <path d="M1323 2540 c-36 -76 -55 -196 -51 -325 1 -63 0 -115 -4 -115 -5 0 -8 4 -8 8 0 4 -22 34 -50 67 -31 36 -65 94 -91 154 -23 53 -43 98 -46 100 -2 3 -1 -20 1 -50 9 -99 103 -316 197 -456 68 -101 81 -102 15 -1 -53 82 -127 221 -141 267 -27 88 136 -141 231 -324 16 -32 26 -40 50 -41 25 -2 25 -1 3 3 -20 3 -29 14 -44 59 -10 30 -38 88 -62 130 -23 42 -40 80 -37 85 3 5 7 60 10 122 2 61 8 128 12 147 l8 35 12 -55 c26 -130 32 -161 53 -280 12 -69 22 -138 21 -155 -1 -23 1 -26 8 -15 14 22 12 106 -6 185 -41 188 -47 230 -53 360 l-7 140 -21 -45z m-29 -492 c24 -47 13 -44 -14 4 -13 22 -18 38 -12 34 6 -3 18 -21 26 -38z"/> <path d="M1644 2383 c-55 -135 -103 -240 -150 -336 -57 -113 -64 -143 -21 -85 22 29 117 217 117 231 0 3 15 38 33 79 18 40 38 84 44 98 11 24 12 24 12 3 1 -25 -59 -164 -146 -340 -30 -62 -57 -125 -58 -142 l-2 -29 36 16 c73 34 149 82 266 171 129 97 162 118 171 108 9 -9 -49 -87 -107 -144 -63 -61 -111 -98 -155 -119 -17 -8 -40 -23 -51 -33 -10 -10 -25 -20 -33 -23 -9 -3 5 -11 30 -18 63 -17 255 -6 405 24 102 21 142 25 124 13 -2 -1 -24 -16 -49 -33 -62 -41 -153 -81 -236 -100 -38 -9 -77 -21 -86 -25 -26 -13 -114 -10 -192 6 -38 8 -71 13 -73 11 -6 -6 111 -34 172 -41 33 -4 71 -15 85 -25 14 -9 42 -23 63 -31 20 -7 37 -17 37 -21 0 -4 6 -8 14 -8 7 0 20 -8 27 -17 11 -14 11 -15 1 -9 -8 5 -32 8 -54 8 -44 -1 -166 39 -283 93 -41 19 -75 32 -75 30 0 -15 249 -120 330 -140 150 -38 370 -66 370 -48 0 5 -46 22 -102 37 -99 26 -185 58 -293 107 l-50 22 70 12 c91 16 209 64 293 119 69 45 130 101 120 111 -3 3 -41 -3 -84 -14 -121 -31 -246 -50 -394 -60 -74 -6 -136 -8 -137 -7 -2 2 26 18 63 36 77 38 186 136 250 225 55 78 69 114 49 122 -18 6 -82 -34 -251 -161 -118 -89 -259 -183 -252 -168 2 4 42 86 90 182 47 96 98 208 114 249 27 71 28 74 9 87 -30 22 -45 17 -61 -23z"/> <path d="M652 2109 c-70 -35 -115 -83 -137 -148 -19 -56 -19 -102 0 -148 l15 -36 -40 -43 c-21 -23 -47 -60 -56 -81 -23 -52 -23 -159 -1 -200 16 -31 16 -32 -18 -88 -53 -89 -58 -174 -15 -257 l21 -40 -22 -46 c-30 -62 -36 -140 -15 -197 16 -41 84 -115 106 -115 6 0 10 -20 10 -45 0 -79 46 -156 112 -191 40 -21 136 -18 182 6 l39 19 42 -24 c76 -45 196 -26 268 43 22 21 39 27 77 29 90 3 192 77 222 161 12 31 15 33 46 27 107 -20 252 91 277 213 6 28 10 32 40 32 75 0 159 60 203 144 22 42 27 64 27 126 0 93 -11 115 -110 218 -62 64 -76 75 -87 63 -10 -11 -10 -14 0 -18 7 -3 18 -11 25 -18 6 -7 36 -39 66 -70 29 -32 59 -73 67 -91 36 -86 0 -213 -79 -278 -43 -35 -132 -65 -174 -58 -37 6 -102 74 -123 129 l-19 50 35 34 c20 19 46 54 59 79 26 52 42 126 26 115 -6 -3 -11 -14 -11 -23 0 -28 -45 -115 -81 -156 -26 -29 -51 -43 -102 -60 -67 -22 -69 -23 -90 -75 -26 -62 -82 -135 -116 -151 -47 -22 -121 -30 -169 -19 -43 9 -48 8 -64 -13 -10 -13 -23 -32 -29 -43 -8 -15 -5 -14 11 4 11 13 25 31 29 39 7 13 13 13 40 2 31 -13 129 -10 164 5 13 5 17 2 17 -11 1 -38 39 -103 78 -131 l39 -28 -27 -44 c-54 -86 -113 -122 -210 -128 -63 -5 -66 -4 -99 29 -49 48 -71 102 -71 177 0 56 -2 62 -17 56 -99 -42 -159 -45 -217 -12 -50 28 -79 83 -84 161 -2 34 -7 64 -11 69 -4 4 -27 1 -50 -8 -77 -27 -163 -13 -203 32 -24 27 -48 91 -48 128 0 31 24 111 50 167 10 21 16 25 26 17 10 -8 7 -18 -12 -46 -13 -20 -24 -41 -24 -47 0 -6 12 8 26 32 14 23 27 42 28 42 2 0 21 -7 42 -16 38 -16 128 -16 167 1 15 6 17 1 17 -34 0 -41 29 -113 51 -126 6 -4 3 8 -7 26 -10 19 -23 59 -29 89 l-12 55 -81 -4 c-101 -4 -140 16 -177 90 -45 88 -22 202 54 273 29 27 32 28 49 13 25 -23 86 -47 120 -47 25 0 29 -5 40 -44 6 -24 23 -58 38 -75 l26 -31 -31 -47 c-17 -25 -31 -52 -31 -59 0 -7 -3 -21 -6 -31 -3 -10 6 3 21 30 29 54 48 63 34 15 -14 -51 -5 -42 20 17 13 30 27 55 32 55 14 0 11 -17 -11 -52 -11 -18 -20 -40 -19 -48 0 -8 11 6 25 32 l24 48 55 -1 c50 -2 55 -4 55 -24 0 -12 7 -42 16 -68 17 -49 81 -117 111 -117 14 0 12 4 -7 17 -67 47 -99 103 -102 180 -1 41 5 58 38 111 22 34 43 59 47 56 3 -4 0 -13 -8 -21 -19 -19 -45 -108 -44 -152 0 -30 3 -25 14 25 21 99 43 130 123 181 39 26 38 26 -20 3 -21 -8 -38 -18 -38 -22 0 -4 -6 -8 -12 -8 -7 0 4 16 24 35 20 19 41 35 47 35 6 0 11 5 11 10 0 17 -72 -19 -108 -53 -37 -35 -72 -96 -82 -142 -6 -29 -8 -30 -56 -29 -79 1 -117 23 -147 85 -25 54 -46 127 -29 100 11 -16 17 -7 26 40 10 55 59 125 106 149 22 11 67 25 98 29 l57 9 -59 1 c-51 1 -57 3 -46 16 7 8 19 15 26 15 8 0 14 5 14 10 0 6 -11 8 -27 4 -107 -26 -195 -122 -210 -229 -5 -42 -7 -44 -32 -39 -14 3 -46 16 -71 27 -50 24 -90 87 -90 142 0 38 50 143 81 172 55 50 153 67 231 39 31 -11 35 -11 31 1 -5 11 -1 12 23 1 16 -6 33 -15 38 -20 5 -4 14 -3 21 2 7 6 34 -14 80 -58 39 -37 97 -87 130 -110 l60 -43 -50 43 c-94 82 -165 151 -165 161 0 5 12 6 28 3 26 -6 26 -6 8 9 -11 8 -29 15 -40 15 -12 0 -57 11 -101 25 -111 35 -176 33 -253 -6z m948 -966 c0 -44 46 -110 98 -140 26 -14 48 -27 50 -28 1 -1 -9 -26 -22 -56 -46 -103 -128 -159 -232 -159 -56 0 -62 2 -97 38 -20 20 -43 57 -52 81 l-15 45 44 44 c46 45 86 116 86 152 0 14 7 20 23 21 12 0 38 6 57 13 52 20 60 19 60 -11z m-1144 -113 c-15 -50 -16 -62 -2 -31 12 25 20 31 33 26 10 -4 41 -10 68 -12 45 -5 81 4 137 35 3 1 4 -14 1 -35 -7 -50 11 -115 42 -151 14 -17 25 -34 25 -40 0 -18 -85 -82 -130 -97 -61 -20 -104 -14 -148 22 -62 50 -82 88 -82 154 0 33 4 59 9 59 4 0 14 20 21 45 7 25 17 45 22 45 6 0 8 -9 4 -20z m559 -244 c-10 -67 16 -146 64 -188 21 -20 44 -38 52 -41 38 -13 -98 -82 -161 -81 -55 1 -134 44 -155 85 -19 36 -19 165 0 199 12 22 20 25 72 25 42 1 69 7 94 22 18 12 35 22 37 22 2 1 0 -19 -3 -43z m-217 -24 c-25 -51 -25 -155 2 -207 11 -22 20 -40 20 -41 0 -1 -28 -9 -63 -19 -79 -21 -128 -10 -177 40 -19 19 -31 35 -28 35 3 0 -1 26 -8 58 -8 31 -14 59 -14 62 0 3 21 7 46 8 62 2 124 32 170 80 30 32 41 38 54 30 15 -10 15 -13 -2 -46z"/> <path d="M719 2051 c-67 -26 -137 -77 -155 -114 l-17 -32 26 25 c42 42 165 110 225 125 l57 13 -45 1 c-25 0 -66 -8 -91 -18z"/> <path d="M935 1883 c-76 -40 -166 -140 -165 -182 1 -9 9 -2 18 16 24 44 167 166 207 176 16 4 16 5 -5 5 -14 1 -38 -6 -55 -15z"/> <path d="M1503 1823 c15 -2 39 -2 55 0 15 2 2 4 -28 4 -30 0 -43 -2 -27 -4z"/> <path d="M532 1703 c-29 -25 -72 -92 -72 -112 0 -9 7 -2 16 16 9 17 31 50 51 72 37 43 39 52 5 24z"/> <path d="M1153 1669 c-44 -28 -103 -117 -109 -165 l-4 -39 14 43 c19 59 63 120 110 154 45 32 37 38 -11 7z"/> <path d="M1570 1635 c0 -7 78 -45 92 -44 7 0 -9 11 -36 25 -53 26 -56 27 -56 19z"/> <path d="M1709 1565 c18 -8 36 -15 40 -15 13 1 -45 29 -59 29 -8 0 0 -6 19 -14z"/> <path d="M1407 1543 c-4 -3 -7 -12 -7 -19 0 -32 -43 -124 -76 -162 -37 -44 -97 -69 -176 -74 -20 -1 -34 -6 -31 -11 3 -5 -17 -32 -43 -59 -27 -28 -39 -45 -27 -39 12 6 39 31 60 56 30 37 43 45 70 45 19 0 49 6 67 14 l33 14 12 -38 c6 -22 28 -53 51 -74 59 -53 67 -44 11 12 -26 26 -51 61 -55 76 -6 24 -1 33 33 65 43 39 75 100 86 164 7 36 5 44 -8 30z"/> <path d="M812 1165 c4 -4 0 -21 -8 -37 -8 -16 -13 -35 -11 -41 2 -7 9 5 16 26 7 20 17 37 22 37 12 0 12 -1 -7 -45 -21 -51 -12 -55 11 -4 17 37 21 40 49 35 29 -5 80 3 118 19 15 6 16 2 11 -29 -8 -49 13 -117 48 -158 l29 -33 -27 49 c-18 33 -29 71 -32 115 l-6 66 -30 -5 c-48 -7 -127 -5 -160 4 -16 5 -27 5 -23 1z"/> <path d="M770 1138 c-7 -12 -22 -34 -34 -48 -15 -17 -16 -20 -3 -11 24 19 60 71 54 77 -3 3 -11 -5 -17 -18z"/> <path d="M1895 521 c-41 -25 -65 -53 -74 -87 -4 -17 -15 -30 -27 -32 -33 -6 -40 -22 -10 -22 21 0 26 -4 22 -17 -3 -10 -14 -72 -26 -138 -24 -139 -41 -170 -91 -171 -19 0 -43 -6 -54 -13 -17 -10 -12 -11 33 -8 92 7 131 64 160 234 l18 108 35 3 c52 5 60 22 11 22 -41 0 -42 1 -36 28 18 72 48 99 96 87 16 -4 29 -1 37 9 12 14 9 16 -25 16 -22 0 -52 -8 -69 -19z"/> <path d="M2364 521 c-47 -29 -72 -78 -95 -190 -24 -119 -23 -155 6 -159 24 -3 86 35 93 58 3 8 -10 2 -28 -13 -32 -27 -52 -32 -51 -12 0 34 46 246 58 273 16 33 47 48 80 38 11 -3 28 1 39 9 18 13 16 14 -26 15 -27 0 -57 -8 -76 -19z"/> <path d="M1692 484 c-18 -14 -32 -30 -32 -35 0 -15 57 18 64 37 10 26 3 25 -32 -2z"/> <path d="M272 460 c-33 -15 -47 -29 -62 -62 -10 -23 -17 -44 -15 -46 10 -11 43 22 48 48 5 22 16 35 42 47 19 9 37 14 41 11 6 -7 -12 -109 -33 -186 -12 -45 -19 -54 -42 -58 -15 -3 -33 -14 -39 -25 -12 -18 -8 -19 77 -19 96 0 133 9 169 42 35 34 29 74 -13 96 l-36 18 36 17 c62 29 73 101 20 125 -41 19 -144 14 -193 -8z m169 -11 c21 -21 19 -44 -7 -86 -12 -19 -69 -41 -79 -31 -3 3 3 39 20 116 7 28 38 29 66 1z m-26 -154 c30 -29 32 -58 5 -85 -20 -20 -61 -25 -117 -14 l-29 6 33 33 c18 18 33 42 33 52 0 41 39 45 75 8z"/> <path d="M1473 463 c-7 -2 -13 -18 -13 -34 0 -24 -4 -29 -24 -29 -14 0 -28 -4 -31 -10 -4 -6 5 -10 21 -10 22 0 25 -3 20 -22 -14 -53 -28 -158 -23 -172 4 -9 17 -16 29 -16 27 0 88 35 88 51 0 6 -12 1 -26 -10 -15 -12 -33 -21 -40 -21 -20 0 -18 26 12 168 3 18 11 22 39 22 18 0 37 5 40 10 4 6 -10 10 -34 10 l-40 0 10 32 c5 18 9 34 9 35 0 4 -24 2 -37 -4z"/> <path d="M608 375 c-36 -25 -78 -95 -78 -132 0 -11 9 -32 21 -47 56 -71 187 14 192 125 3 75 -64 102 -135 54z m82 -14 c15 -29 12 -71 -10 -118 -20 -46 -58 -65 -85 -43 -17 14 -20 76 -5 114 22 59 79 85 100 47z"/> <path d="M793 374 c-18 -14 -33 -30 -33 -37 0 -6 13 1 28 16 30 29 52 35 52 15 -1 -7 -7 -40 -15 -73 -26 -108 -17 -135 40 -121 16 4 39 27 61 61 20 30 38 55 39 55 1 0 -2 -20 -8 -44 -12 -53 -5 -76 24 -76 25 0 89 45 89 62 0 7 -13 0 -28 -15 -33 -32 -52 -35 -52 -8 0 18 24 132 36 174 4 13 -1 17 -20 17 -19 0 -26 -5 -26 -20 0 -51 -83 -180 -116 -180 -18 0 -18 3 2 94 9 41 14 82 11 90 -9 24 -48 19 -84 -10z"/> <path d="M1091 375 c-17 -15 -31 -32 -31 -38 0 -6 13 1 28 16 27 26 52 35 52 20 0 -12 -29 -154 -36 -181 -6 -21 -4 -23 17 -20 18 2 25 12 31 42 5 22 12 44 16 50 4 6 7 38 7 71 0 57 -1 60 -26 63 -17 2 -37 -6 -58 -23z"/> <path d="M1248 385 c-24 -14 -68 -71 -68 -90 0 -5 16 10 36 33 36 42 64 54 64 28 0 -8 -7 -46 -15 -85 -16 -78 -12 -101 17 -101 24 0 88 37 88 52 0 5 -12 0 -26 -11 -36 -28 -58 -28 -50 2 15 55 29 155 23 170 -8 21 -33 21 -69 2z"/> <path d="M1648 386 c-44 -13 -59 -26 -30 -26 31 0 33 -11 16 -89 -18 -81 -15 -101 20 -101 26 0 86 44 86 63 0 6 -13 -1 -28 -16 -57 -55 -60 -36 -22 116 18 72 18 72 -42 53z"/> <path d="M1943 374 c-18 -14 -33 -30 -33 -37 0 -6 13 1 28 16 30 29 52 35 52 15 -1 -7 -7 -40 -15 -73 -26 -108 -17 -135 40 -121 16 4 39 27 61 61 20 30 38 55 39 55 1 0 -2 -20 -8 -44 -12 -52 -5 -76 21 -76 24 0 84 40 90 60 3 8 -9 3 -25 -12 -34 -33 -53 -36 -53 -9 0 18 24 132 36 174 4 13 -1 17 -20 17 -19 0 -26 -5 -26 -20 0 -51 -83 -180 -116 -180 -18 0 -18 10 2 96 10 39 14 79 11 88 -9 24 -47 19 -84 -10z"/> </g> </svg> 